<svg width="155" height="29" viewBox="0 0 155 29" fill="none" xmlns="http://www.w3.org/2000/svg">
<path d="M154.999 26.6792V28.897H141.138V26.6792H154.999Z" fill="#EF550A"/>
<path d="M141.125 26.6792V28.897H127.264V26.6792H141.125Z" fill="#EF550A"/>
<path d="M120.882 26.1901C119.816 26.1901 118.838 26.027 117.947 25.7009C117.055 25.353 116.294 24.8746 115.663 24.2658C115.055 23.6353 114.576 22.8851 114.228 22.0154C113.88 21.1239 113.707 20.1454 113.707 19.08C113.707 18.0363 113.87 17.0796 114.196 16.2098C114.544 15.3401 115.022 14.6008 115.631 13.992C116.24 13.3614 116.968 12.8722 117.816 12.5243C118.664 12.1764 119.599 12.0024 120.621 12.0024C121.599 12.0024 122.48 12.1546 123.263 12.4591C124.046 12.7635 124.72 13.1983 125.285 13.7637C125.85 14.3073 126.285 14.9813 126.59 15.7858C126.894 16.5686 127.057 17.4383 127.079 18.3951C127.079 18.6995 127.068 18.9495 127.046 19.1452C127.046 19.3409 127.024 19.6236 126.981 19.9932L126.883 20.5477H117.294C117.794 22.2002 119.012 23.0264 120.947 23.0264C121.643 23.0264 122.317 22.9721 122.969 22.8634C123.643 22.7546 124.394 22.5916 125.22 22.3741L125.872 22.1784L126.492 25.1464L125.774 25.3421C124.948 25.5813 124.154 25.777 123.393 25.9292C122.654 26.1031 121.817 26.1901 120.882 26.1901ZM117.229 17.6123H123.85C123.698 16.786 123.339 16.1446 122.774 15.688C122.23 15.2314 121.523 15.0031 120.654 15.0031C119.74 15.0031 118.99 15.2314 118.403 15.688C117.816 16.1446 117.425 16.786 117.229 17.6123Z" fill="#EF550A"/>
<path d="M112.598 25.7987H109.304V18.0363C109.304 17.1231 109.075 16.4273 108.619 15.9489C108.162 15.4488 107.51 15.1987 106.662 15.1987H103.041V25.7987H99.7473V12.0024H106.988C108.727 12.0024 110.097 12.5134 111.097 13.5354C112.098 14.5356 112.598 15.9054 112.598 17.6449V25.7987Z" fill="#EF550A"/>
<path d="M98.4519 25.7988H95.1577V12.0025H98.4519V25.7988ZM98.4519 10.3717H95.1903V7.04492H98.4519V10.3717Z" fill="#EF550A"/>
<path d="M93.218 25.8313H89.9238V6.06641H93.218V25.8313Z" fill="#EF550A"/>
<path d="M84.1077 6.81665C84.1794 7.55811 84.2153 8.31153 84.2153 9.0769L84.1794 9.72268V10.3685C84.1316 11.1578 84.1077 12.3178 84.1077 13.8485C84.1077 15.5467 84.0718 16.8383 84.0001 17.7232L83.8924 18.9072C83.7728 20.8445 83.2825 22.4949 82.4215 23.8582C82.0627 24.3605 81.5245 24.8029 80.807 25.1856C80.0895 25.5683 79.3002 25.8792 78.4391 26.1184C77.5542 26.3815 76.5137 26.5131 75.3178 26.5131C74.7677 26.5131 74.385 26.5011 74.1698 26.4772C72.9978 26.3815 71.9454 26.1304 71.0126 25.7238C70.1037 25.2933 69.434 24.6714 69.0035 23.8582C68.4295 22.7819 68.1185 21.4305 68.0707 19.8041L67.999 18.656C67.975 18.4647 67.9631 18.07 67.9631 17.4721C67.8435 15.5108 67.7837 13.6333 67.7837 11.8394C67.7837 10.7392 67.8196 9.63897 67.8913 8.53874C67.9631 7.34285 68.1664 6.18283 68.5012 5.05868C68.86 3.91062 69.3982 2.90607 70.1157 2.04503L70.905 1.6145C72.4357 0.873048 74.11 0.502319 75.9277 0.502319C77.0758 0.502319 78.1521 0.657786 79.1567 0.968719C80.1851 1.25573 81.0821 1.68626 81.8474 2.26029C82.6846 3.02566 83.2347 3.77908 83.4978 4.52053C83.7848 5.28591 83.9881 6.05128 84.1077 6.81665ZM78.5468 10.7272L78.4033 8.86164C78.3554 8.19193 78.188 7.60595 77.901 7.10367C77.6379 6.57747 77.2911 6.20675 76.8605 5.99149C76.6692 5.91973 76.4779 5.88385 76.2865 5.88385C75.7125 5.88385 75.1504 6.0752 74.6003 6.45788C74.3133 6.69706 74.0263 7.04387 73.7393 7.49831C73.4762 7.92884 73.2729 8.37132 73.1293 8.82576C72.8902 9.87815 72.7706 11.2176 72.7706 12.844C72.7706 13.6572 72.7825 14.2671 72.8065 14.6737V14.6378C72.9021 15.1162 72.9739 15.75 73.0217 16.5393L73.0576 17.0416C73.1533 18.2375 73.2848 19.1224 73.4522 19.6965V19.6606C73.6675 20.1389 73.9784 20.5097 74.385 20.7728C74.8156 21.0119 75.27 21.1315 75.7484 21.1315C76.1311 21.1315 76.5137 21.0478 76.8964 20.8804C77.303 20.6891 77.6498 20.426 77.9369 20.0911C78.176 19.7802 78.3195 19.5171 78.3674 19.3018C78.4391 19.0866 78.475 18.7517 78.475 18.2973C78.475 17.8907 78.487 17.5917 78.5109 17.4003L78.5468 16.9339L78.5826 16.2523V15.75L78.6185 15.0683V13.3462L78.5468 10.9066V10.7272Z" fill="#3F83F8"/>
<path d="M66.7644 6.81665C66.8362 7.55811 66.872 8.31153 66.872 9.0769L66.8362 9.72268V10.3685C66.7883 11.1578 66.7644 12.3178 66.7644 13.8485C66.7644 15.5467 66.7285 16.8383 66.6568 17.7232L66.5492 18.9072C66.4296 20.8445 65.9392 22.4949 65.0782 23.8582C64.7194 24.3605 64.1813 24.8029 63.4637 25.1856C62.7462 25.5683 61.9569 25.8792 61.0959 26.1184C60.2109 26.3815 59.1705 26.5131 57.9746 26.5131C57.4245 26.5131 57.0418 26.5011 56.8265 26.4772C55.6545 26.3815 54.6022 26.1304 53.6694 25.7238C52.7605 25.2933 52.0908 24.6714 51.6602 23.8582C51.0862 22.7819 50.7753 21.4305 50.7274 19.8041L50.6557 18.656C50.6318 18.4647 50.6198 18.07 50.6198 17.4721C50.5002 15.5108 50.4404 13.6333 50.4404 11.8394C50.4404 10.7392 50.4763 9.63897 50.5481 8.53874C50.6198 7.34285 50.8231 6.18283 51.158 5.05868C51.5167 3.91062 52.0549 2.90607 52.7724 2.04503L53.5617 1.6145C55.0925 0.873048 56.7667 0.502319 58.5845 0.502319C59.7325 0.502319 60.8089 0.657786 61.8134 0.968719C62.8419 1.25573 63.7388 1.68626 64.5042 2.26029C65.3413 3.02566 65.8914 3.77908 66.1545 4.52053C66.4415 5.28591 66.6448 6.05128 66.7644 6.81665ZM61.2035 10.7272L61.06 8.86164C61.0122 8.19193 60.8447 7.60595 60.5577 7.10367C60.2946 6.57747 59.9478 6.20675 59.5173 5.99149C59.3259 5.91973 59.1346 5.88385 58.9433 5.88385C58.3692 5.88385 57.8072 6.0752 57.257 6.45788C56.97 6.69706 56.683 7.04387 56.396 7.49831C56.1329 7.92884 55.9296 8.37132 55.7861 8.82576C55.5469 9.87815 55.4273 11.2176 55.4273 12.844C55.4273 13.6572 55.4393 14.2671 55.4632 14.6737V14.6378C55.5589 15.1162 55.6306 15.75 55.6785 16.5393L55.7143 17.0416C55.81 18.2375 55.9416 19.1224 56.109 19.6965V19.6606C56.3242 20.1389 56.6352 20.5097 57.0418 20.7728C57.4723 21.0119 57.9267 21.1315 58.4051 21.1315C58.7878 21.1315 59.1705 21.0478 59.5532 20.8804C59.9598 20.6891 60.3066 20.426 60.5936 20.0911C60.8328 19.7802 60.9763 19.5171 61.0241 19.3018C61.0959 19.0866 61.1317 18.7517 61.1317 18.2973C61.1317 17.8907 61.1437 17.5917 61.1676 17.4003L61.2035 16.9339L61.2394 16.2523V15.75L61.2753 15.0683V13.3462L61.2035 10.9066V10.7272Z" fill="#3F83F8"/>
<path d="M50.4078 23.2483C50.4317 23.5353 50.4436 23.9538 50.4436 24.504C50.4436 25.0062 50.3958 25.365 50.3001 25.5803C50.2284 25.7716 50.1088 25.8912 49.9414 25.939C49.7739 25.9869 49.4869 26.0108 49.0803 26.0108H48.8292L48.2551 25.9749L47.3224 26.0108C45.8394 26.0586 43.6509 26.0825 40.7569 26.0825C38.0063 26.0825 35.8178 26.0706 34.1914 26.0467V25.2215C34.3588 21.275 34.4425 17.3047 34.4425 13.3104C34.4425 12.1384 34.4186 10.1173 34.3708 7.24717V6.38612V5.05868C34.3469 4.65207 34.3349 3.92258 34.3349 2.87019L34.299 0.538188C34.6339 0.418598 35.1003 0.322926 35.6982 0.251172C36.2962 0.155501 36.8941 0.107666 37.4921 0.107666C38.1618 0.107666 38.8315 0.155501 39.5012 0.251172C40.1709 0.346844 40.709 0.478393 41.1156 0.645819C41.0678 2.36791 41.0439 3.74319 41.0439 4.77166C41.0439 6.20674 41.0678 8.35935 41.1156 11.2295C41.1396 12.6646 41.1515 14.7813 41.1515 17.5797V19.9117C41.9408 19.9117 42.9095 19.9476 44.0576 20.0193L45.959 20.0911C46.9636 20.1629 47.9083 20.1987 48.7933 20.1987C49.4152 20.1987 49.9653 20.1748 50.4436 20.127C50.4436 20.6771 50.4317 21.0359 50.4078 21.2033V21.1674C50.3599 21.8132 50.348 22.2796 50.3719 22.5666L50.4078 23.2483Z" fill="#3F83F8"/>
<path d="M33.3862 22.6383C33.3862 23.8581 33.2547 24.9464 32.9916 25.9031C31.9392 25.9031 30.3845 25.927 28.3276 25.9748L23.6277 26.0107C21.499 26.0107 19.3703 25.939 17.2416 25.7954C17.2655 25.0301 17.2297 22.0523 17.134 16.8621C17.0622 13.9202 17.0264 11.6599 17.0264 10.0814C17.0264 6.80461 17.1101 3.75507 17.2775 0.932756L20.4347 0.825124C23.9745 0.681617 26.6773 0.609863 28.5429 0.609863C30.1454 0.609863 31.7 0.669658 33.2069 0.789248C33.3025 1.29152 33.3504 1.87751 33.3504 2.54721C33.3504 2.90598 33.3264 3.49197 33.2786 4.30518C33.2308 5.07056 33.2069 5.66851 33.2069 6.09903C31.7718 6.40996 30.1693 6.56543 28.3993 6.56543L23.7353 6.60131C23.6158 7.72545 23.556 8.65825 23.556 9.3997C23.556 9.97373 23.6277 10.476 23.7712 10.9065L26.1391 10.6195C26.474 10.6195 26.9762 10.6434 27.6459 10.6913L28.1123 10.7271C28.2319 11.4447 28.2917 12.222 28.2917 13.0591L28.22 15.9293C27.4546 16.1446 26.4261 16.2522 25.1345 16.2522L24.2017 16.2163C24.0343 16.2163 23.9267 16.2402 23.8789 16.2881L23.7353 18.1537C23.7353 19.1343 23.7832 19.9475 23.8789 20.5933C25.1226 20.5933 26.3304 20.6292 27.5024 20.7009C27.909 20.7248 28.4113 20.7488 29.0093 20.7727C29.6072 20.7966 30.3128 20.8086 31.126 20.8086L33.3145 20.7368C33.3623 21.837 33.3862 22.4709 33.3862 22.6383Z" fill="#3F83F8"/>
<path d="M13.6691 13.8485C14.578 14.9965 15.2477 15.9533 15.6782 16.7186C16.1087 17.4601 16.324 18.3331 16.324 19.3376C16.324 19.7443 16.2881 20.1867 16.2164 20.6651C15.8337 22.7938 14.8411 24.2528 13.2386 25.0421C11.6361 25.8074 9.57913 26.1901 7.06775 26.1901C6.32629 26.1901 4.00625 26.0466 0.107631 25.7596C0.0358771 23.9658 0 21.0956 0 17.1492C0 12.8678 0.011959 9.0051 0.035877 5.56092V0.896922C2.14066 0.298974 4.16172 0 6.09907 0C8.8018 0 11.0142 0.597948 12.7363 1.79385C14.4823 2.96582 15.3553 4.90318 15.3553 7.6059C15.3553 9.35191 14.7454 11.2534 13.5256 13.3103V13.2745C13.4778 13.3701 13.4538 13.4419 13.4538 13.4897C13.4538 13.5615 13.5256 13.6691 13.6691 13.8126V13.8485ZM9.68676 7.6059C9.32799 6.9362 8.87355 6.52959 8.32344 6.38609C7.94075 6.33825 7.64178 6.31433 7.42652 6.31433C6.80465 6.2665 6.33825 6.2067 6.02732 6.13495C6.09907 6.54155 6.13495 7.16342 6.13495 8.00055V9.29212C6.13495 9.89006 6.14691 10.3565 6.17083 10.6913H7.21126C8.26365 10.6913 8.98118 10.3325 9.36387 9.61501C9.6748 9.04098 9.83027 8.57458 9.83027 8.21581C9.83027 8.00055 9.78243 7.79725 9.68676 7.6059ZM9.68676 18.6201C9.68676 18.2135 9.61501 17.771 9.4715 17.2927V17.3285C9.35191 17.0654 9.18449 16.8263 8.96922 16.611C8.75396 16.3957 8.5387 16.2642 8.32344 16.2164C7.94075 16.1207 7.37868 16.0489 6.63723 16.0011C6.56547 16.0011 6.48176 16.0131 6.38609 16.037C6.31433 16.037 6.23062 16.025 6.13495 16.0011C5.89577 17.0056 5.77618 17.8787 5.77618 18.6201C5.77618 19.4812 5.90773 20.1509 6.17083 20.6292C7.03187 20.6531 7.70157 20.6292 8.17993 20.5575C8.68221 20.4618 9.10077 20.2107 9.43562 19.804C9.60305 19.5649 9.68676 19.1702 9.68676 18.6201Z" fill="#3F83F8"/>
</svg>
