<svg width="19" height="18" viewBox="0 0 19 18" fill="none" xmlns="http://www.w3.org/2000/svg">
<path d="M11.5386 5.0784C11.5386 4.59713 11.2847 4.15178 10.8539 3.88601L7.77695 1.96814C7.26156 1.6449 6.58462 1.6449 6.06923 1.96814L2.99225 3.88601C2.56916 4.15178 2.30762 4.59713 2.30762 5.0784V9.15837C2.30762 9.3595 2.47685 9.51753 2.69224 9.51753H11.1539C11.3693 9.51753 11.5386 9.3595 11.5386 9.15837V5.0784ZM6.92309 7.72176C6.18461 7.72176 5.57691 7.1543 5.57691 6.46473C5.57691 5.77515 6.18461 5.20769 6.92309 5.20769C7.66156 5.20769 8.26927 5.77515 8.26927 6.46473C8.26927 7.1543 7.66156 7.72176 6.92309 7.72176Z" fill="#2972FF"/>
<path d="M16.9235 15.264H15.9466V13.109C16.6773 12.8864 17.2081 12.2471 17.2081 11.4929V10.0562C17.2081 9.11527 16.385 8.34668 15.3773 8.34668C14.3696 8.34668 13.5465 9.11527 13.5465 10.0562V11.4929C13.5465 12.2399 14.0696 12.872 14.785 13.1019V15.264H11.5388V10.9541C11.5388 10.753 11.3696 10.595 11.1542 10.595H2.69247C2.47708 10.595 2.30785 10.753 2.30785 10.9541V15.264H1.5386C1.22321 15.264 0.96167 15.5082 0.96167 15.8027C0.96167 16.0972 1.22321 16.3414 1.5386 16.3414H15.3312C15.3466 16.3414 15.3542 16.3486 15.3696 16.3486C15.385 16.3486 15.3927 16.3414 15.4081 16.3414H16.9235C17.2389 16.3414 17.5004 16.0972 17.5004 15.8027C17.5004 15.5082 17.2389 15.264 16.9235 15.264ZM6.34639 13.109C6.34639 12.8145 6.60793 12.5703 6.92332 12.5703C7.23871 12.5703 7.50025 12.8145 7.50025 13.109V15.264H6.34639V13.109Z" fill="#2972FF"/>
</svg>
