<svg width="20" height="20" viewBox="0 0 20 20" fill="none" xmlns="http://www.w3.org/2000/svg">
<path fill-rule="evenodd" clip-rule="evenodd" d="M12.9439 10.4909C14.217 10.9301 15.3837 11.6558 16.364 12.636C18.0638 14.3359 19 16.596 19 19H17.5938C17.5938 14.8128 14.1872 11.4062 10 11.4062C5.81279 11.4062 2.40625 14.8128 2.40625 19H1C1 16.596 1.93618 14.3359 3.63605 12.636C4.61631 11.6558 5.78308 10.9301 7.05609 10.4909C5.69262 9.55179 4.79688 7.9802 4.79688 6.20312C4.79688 3.33413 7.131 1 10 1C12.869 1 15.2031 3.33413 15.2031 6.20312C15.2031 7.9802 14.3074 9.55179 12.9439 10.4909ZM6.20312 6.20312C6.20312 8.29675 7.90641 10 10 10C12.0936 10 13.7969 8.29675 13.7969 6.20312C13.7969 4.1095 12.0936 2.40625 10 2.40625C7.90641 2.40625 6.20312 4.1095 6.20312 6.20312Z" fill="#1E293B"/>
<path d="M16.364 12.636L16.5408 12.4592L16.5408 12.4592L16.364 12.636ZM12.9439 10.4909L12.8021 10.285L12.3945 10.5657L12.8624 10.7272L12.9439 10.4909ZM19 19V19.25H19.25V19H19ZM17.5938 19H17.3438V19.25H17.5938V19ZM2.40625 19V19.25H2.65625V19H2.40625ZM1 19H0.75V19.25H1V19ZM3.63605 12.636L3.45928 12.4592L3.45927 12.4592L3.63605 12.636ZM7.05609 10.4909L7.13763 10.7272L7.60554 10.5657L7.19789 10.285L7.05609 10.4909ZM16.5408 12.4592C15.5338 11.4523 14.3345 10.7062 13.0255 10.2545L12.8624 10.7272C14.0994 11.154 15.2337 11.8593 16.1872 12.8128L16.5408 12.4592ZM19.25 19C19.25 16.5297 18.2875 14.206 16.5408 12.4592L16.1872 12.8128C17.8402 14.4658 18.75 16.6623 18.75 19H19.25ZM17.5938 19.25H19V18.75H17.5938V19.25ZM10 11.6562C14.0491 11.6562 17.3438 14.9509 17.3438 19H17.8438C17.8438 14.6747 14.3253 11.1562 10 11.1562V11.6562ZM2.65625 19C2.65625 14.9509 5.95086 11.6562 10 11.6562V11.1562C5.67471 11.1562 2.15625 14.6747 2.15625 19H2.65625ZM1 19.25H2.40625V18.75H1V19.25ZM3.45927 12.4592C1.71252 14.206 0.75 16.5297 0.75 19H1.25C1.25 16.6623 2.15984 14.4658 3.81283 12.8128L3.45927 12.4592ZM6.97454 10.2545C5.66555 10.7062 4.46625 11.4523 3.45928 12.4592L3.81282 12.8128C4.76637 11.8593 5.90061 11.154 7.13763 10.7272L6.97454 10.2545ZM4.54688 6.20312C4.54688 8.06622 5.48624 9.71321 6.91428 10.6967L7.19789 10.285C5.899 9.39038 5.04688 7.89419 5.04688 6.20312H4.54688ZM10 0.75C6.99293 0.75 4.54688 3.19606 4.54688 6.20312H5.04688C5.04688 3.4722 7.26907 1.25 10 1.25V0.75ZM15.4531 6.20312C15.4531 3.19606 13.0071 0.75 10 0.75V1.25C12.7309 1.25 14.9531 3.4722 14.9531 6.20312H15.4531ZM13.0858 10.6967C14.5138 9.71321 15.4531 8.06622 15.4531 6.20312H14.9531C14.9531 7.89419 14.101 9.39038 12.8021 10.285L13.0858 10.6967ZM10 9.75C8.04448 9.75 6.45312 8.15868 6.45312 6.20312H5.95312C5.95312 8.43482 7.76834 10.25 10 10.25V9.75ZM13.5469 6.20312C13.5469 8.15868 11.9555 9.75 10 9.75V10.25C12.2317 10.25 14.0469 8.43482 14.0469 6.20312H13.5469ZM10 2.65625C11.9555 2.65625 13.5469 4.24757 13.5469 6.20312H14.0469C14.0469 3.97143 12.2317 2.15625 10 2.15625V2.65625ZM6.45312 6.20312C6.45312 4.24757 8.04448 2.65625 10 2.65625V2.15625C7.76834 2.15625 5.95312 3.97143 5.95312 6.20312H6.45312Z" fill="#1E293B"/>
</svg>
